<?xml version="1.0" encoding="UTF-8" standalone="no"?>
<!DOCTYPE svg PUBLIC "-//W3C//DTD SVG 1.0//EN" "http://www.w3.org/TR/2001/REC-SVG-20010904/DTD/svg10.dtd">
<svg xmlns="http://www.w3.org/2000/svg" version="1.0" viewBox="0 0 1682 1246" width="1682" height="1246">
<path fill="#545454" d="
  M 0.00 0.00
  L 1682.00 0.00
  L 1682.00 1246.00
  L 0.00 1246.00
  L 0.00 0.00
  Z"
/>
<path fill="#ffffff" d="
  M 848.53 280.20
  L 848.54 347.75
  L 848.44 512.18
  C 848.44 512.45 848.21 512.66 847.95 512.62
  C 827.77 509.92 806.87 507.83 785.25 506.36
  C 784.83 506.33 784.50 505.98 784.50 505.56
  C 784.61 440.59 784.54 375.48 784.29 310.25
  C 784.26 303.50 784.26 296.84 784.28 290.25
  C 784.47 218.44 784.56 146.62 784.56 74.81
  C 784.56 74.53 784.78 74.31 785.06 74.31
  L 847.94 74.31
  C 848.22 74.31 848.44 74.53 848.44 74.81
  L 848.53 280.20
  Z"
/>
<path fill="#ffffff" d="
  M 737.43 504.43
  C 721.87 504.14 706.40 504.25 691.02 504.74
  C 690.60 504.76 690.25 504.42 690.25 503.99
  L 690.25 146.44
  C 690.25 146.06 690.56 145.75 690.94 145.75
  L 753.65 145.75
  C 754.12 145.75 754.50 146.13 754.50 146.60
  L 754.50 504.26
  C 754.50 504.50 754.31 504.69 754.07 504.69
  C 748.56 504.62 743.02 504.54 737.43 504.43
  Z"
/>
<path fill="#ffffff" d="
  M 591.46 353.00
  L 591.25 284.46
  L 591.49 212.04
  C 591.50 211.60 591.85 211.25 592.28 211.25
  L 655.10 211.25
  C 655.43 211.25 655.70 211.52 655.70 211.86
  C 655.58 221.76 655.56 231.55 655.63 241.24
  C 655.71 250.86 655.75 257.53 655.75 261.24
  C 655.75 342.67 655.75 424.15 655.75 505.68
  C 655.75 506.20 655.35 506.63 654.84 506.67
  C 633.49 508.30 612.52 510.52 591.93 513.33
  C 591.70 513.36 591.50 513.19 591.50 512.96
  L 591.46 353.00
  Z"
/>
<path fill="#38b6ff" d="
  M 848.53 280.20
  C 862.81 287.32 876.15 295.57 888.55 304.95
  C 935.54 340.51 968.13 386.09 986.30 441.70
  C 988.40 448.13 990.21 454.54 991.74 460.93
  C 998.31 488.42 1000.65 516.33 998.76 544.67
  C 998.74 544.91 998.50 545.08 998.27 545.01
  C 977.94 538.97 957.45 533.57 936.80 528.80
  C 936.51 528.74 936.31 528.48 936.32 528.18
  C 936.43 517.94 936.24 509.46 935.75 502.75
  C 934.16 480.73 928.93 459.13 920.04 437.95
  C 904.61 401.19 880.78 371.12 848.54 347.75
  L 848.53 280.20
  Z"
/>
<path fill="#38b6ff" d="
  M 591.25 284.46
  L 591.46 353.00
  C 557.50 380.27 533.90 414.44 520.67 455.49
  C 518.58 461.97 516.86 468.40 515.50 474.79
  C 511.81 492.10 510.30 509.80 510.96 527.89
  C 510.97 528.19 510.77 528.46 510.47 528.53
  C 489.59 533.38 469.12 538.89 449.06 545.04
  C 448.71 545.15 448.36 544.90 448.34 544.53
  C 445.85 501.03 452.59 459.75 468.56 420.69
  C 471.05 414.59 473.83 408.53 476.89 402.51
  C 502.12 352.88 539.26 313.89 588.31 285.56
  C 589.52 284.86 590.50 284.49 591.25 284.46
  Z"
/>
<path fill="#38b6ff" d="
  M 723.69 566.11
  C 646.80 565.43 571.57 569.64 498.00 578.75
  C 424.41 587.86 351.92 602.46 280.55 622.57
  C 278.72 623.08 278.63 622.88 280.29 621.95
  C 331.72 593.20 385.75 569.98 442.39 552.27
  C 574.13 511.08 708.59 499.54 845.78 517.65
  C 907.88 525.85 968.62 539.88 1028.00 559.75
  C 1078.14 576.52 1126.82 596.79 1174.05 620.56
  C 1174.22 620.65 1174.40 620.73 1174.58 620.80
  C 1178.43 622.47 1178.33 622.73 1174.30 621.58
  C 1174.09 621.53 1173.89 621.48 1173.70 621.43
  C 1103.44 604.39 1030.12 591.08 953.75 581.50
  C 877.36 571.91 800.68 566.78 723.69 566.11
  Z"
/>
<path fill="#ffffff" d="
  M 754.50 730.21
  C 733.02 733.52 711.59 733.29 690.21 729.50
  L 690.25 571.84
  C 690.25 571.48 690.54 571.19 690.89 571.19
  L 753.57 571.52
  C 754.08 571.52 754.50 571.94 754.50 572.46
  L 754.50 730.21
  Z"
/>
<path fill="#ffffff" d="
  M 655.54 714.75
  L 655.46 719.73
  C 655.45 720.42 654.76 720.90 654.10 720.66
  C 630.73 712.24 609.82 700.63 591.39 685.84
  L 591.50 575.92
  C 591.50 575.34 591.95 574.86 592.52 574.83
  C 613.55 573.48 634.32 572.51 654.81 571.93
  C 655.11 571.92 655.36 572.13 655.40 572.42
  C 655.73 575.05 655.90 577.41 655.90 579.50
  C 655.90 624.59 655.78 669.67 655.54 714.75
  Z"
/>
<path fill="#ffffff" d="
  M 848.54 691.50
  C 848.55 692.01 848.36 692.42 847.95 692.71
  C 828.98 706.24 808.35 716.44 786.06 723.31
  C 784.95 723.66 784.42 723.39 784.46 722.50
  L 784.56 573.06
  C 784.56 572.79 784.79 572.57 785.06 572.59
  L 847.92 576.04
  C 848.25 576.06 848.50 576.34 848.50 576.67
  L 848.54 691.50
  Z"
/>
<path fill="#c4c4c4" d="
  M 591.39 685.84
  C 609.82 700.63 630.73 712.24 654.10 720.66
  C 654.76 720.90 655.45 720.42 655.46 719.73
  L 655.54 714.75
  L 655.68 719.90
  C 655.70 720.70 656.15 721.38 656.81 721.61
  C 667.49 725.29 678.62 727.92 690.21 729.50
  C 711.59 733.29 733.02 733.52 754.50 730.21
  C 764.22 728.93 773.78 726.89 783.17 724.09
  C 783.58 723.97 783.87 723.78 784.05 723.53
  C 784.25 723.24 784.39 722.89 784.46 722.50
  C 784.42 723.39 784.95 723.66 786.06 723.31
  C 808.35 716.44 828.98 706.24 847.95 692.71
  C 848.36 692.42 848.55 692.01 848.54 691.50
  C 848.87 691.82 849.21 691.85 849.57 691.58
  C 886.85 663.89 912.67 628.08 927.04 584.15
  C 927.17 583.73 927.59 583.46 928.03 583.51
  C 949.97 585.88 971.13 588.60 991.50 591.68
  C 991.77 591.72 991.94 591.97 991.88 592.23
  C 987.65 609.96 981.61 627.06 973.77 643.51
  C 951.24 690.77 918.29 728.58 874.94 756.94
  C 837.62 781.35 796.63 795.83 751.97 800.40
  C 745.43 801.07 738.78 801.47 732.01 801.62
  C 668.21 802.96 610.86 784.93 559.96 747.54
  C 554.57 743.58 549.36 739.43 544.33 735.09
  C 499.72 696.52 470.24 648.24 455.87 590.25
  C 455.81 589.98 455.98 589.71 456.25 589.67
  C 477.41 586.37 498.64 583.60 519.93 581.36
  C 520.23 581.33 520.50 581.51 520.58 581.79
  C 533.65 623.67 557.25 658.35 591.39 685.84
  Z"
/>
<path fill="#38b6ff" d="
  M 65.56 909.31
  L 65.50 1060.08
  C 65.50 1060.45 65.20 1060.75 64.84 1060.75
  L 20.02 1060.75
  C 19.73 1060.75 19.50 1060.52 19.50 1060.23
  L 19.50 827.27
  C 19.50 826.98 19.73 826.75 20.02 826.75
  L 67.01 826.75
  C 67.39 826.75 67.74 826.94 67.95 827.26
  L 166.99 981.29
  C 167.66 982.34 168.00 982.24 168.00 980.99
  L 168.00 827.68
  C 168.00 827.17 168.42 826.75 168.93 826.75
  L 213.12 826.75
  C 213.61 826.75 214.00 827.14 214.00 827.63
  L 214.00 1059.88
  C 214.00 1060.36 213.61 1060.75 213.13 1060.75
  L 165.00 1060.75
  C 164.54 1060.75 164.12 1060.52 163.86 1060.13
  L 65.84 909.24
  C 65.65 908.95 65.56 908.98 65.56 909.31
  Z"
/>
<path fill="#38b6ff" d="
  M 1005.48 936.86
  C 1012.41 938.63 1018.95 941.42 1025.08 945.23
  C 1031.25 949.06 1036.19 953.47 1039.91 958.44
  C 1046.08 966.67 1049.52 976.53 1050.25 988.00
  C 1051.14 1002.17 1048.46 1014.87 1042.19 1026.10
  C 1039.00 1031.83 1034.83 1037.00 1029.70 1041.59
  C 1020.65 1049.68 1010.08 1054.98 998.00 1057.50
  C 992.01 1058.75 985.10 1059.54 977.26 1059.88
  C 965.93 1060.37 954.59 1060.66 943.25 1060.74
  C 910.65 1060.96 878.05 1060.90 845.44 1060.57
  C 845.16 1060.56 844.94 1060.34 844.93 1060.06
  L 844.81 827.34
  C 844.81 827.01 845.08 826.75 845.41 826.75
  C 879.05 826.75 912.41 826.82 945.50 826.97
  C 957.49 827.02 966.66 827.20 973.00 827.50
  C 979.83 827.83 986.85 828.95 994.04 830.86
  C 1007.85 834.53 1019.07 841.85 1027.69 852.81
  C 1033.55 860.27 1037.03 868.91 1038.13 878.74
  C 1038.89 885.57 1038.47 892.20 1036.87 898.64
  C 1035.30 904.97 1032.58 910.89 1028.71 916.42
  C 1022.85 924.79 1015.07 931.28 1005.38 935.90
  C 1004.53 936.31 1004.57 936.63 1005.48 936.86
  Z"
/>
<path fill="#38b6ff" d="
  M 1590.57 953.74
  L 1654.80 1059.84
  C 1655.15 1060.40 1654.99 1060.68 1654.33 1060.69
  L 1605.11 1060.75
  C 1604.63 1060.75 1604.18 1060.49 1603.93 1060.07
  L 1559.89 985.24
  C 1559.77 985.04 1559.50 985.00 1559.33 985.16
  L 1538.15 1006.45
  C 1537.93 1006.67 1537.81 1006.99 1537.82 1007.32
  C 1538.11 1022.79 1538.07 1038.27 1537.68 1053.75
  C 1537.63 1055.92 1537.71 1057.94 1537.94 1059.80
  C 1538.00 1060.30 1537.61 1060.75 1537.10 1060.75
  L 1491.18 1060.69
  C 1490.80 1060.69 1490.50 1060.38 1490.50 1060.00
  L 1490.56 827.45
  C 1490.56 827.06 1490.88 826.75 1491.27 826.75
  L 1536.25 826.75
  C 1536.77 826.75 1537.39 827.47 1537.75 828.50
  C 1537.97 829.15 1538.08 829.81 1538.08 830.50
  C 1538.03 869.83 1538.00 909.49 1538.00 949.47
  C 1538.00 950.14 1538.23 950.23 1538.68 949.74
  L 1592.31 891.66
  C 1592.59 891.36 1592.99 891.19 1593.41 891.19
  L 1649.33 891.17
  C 1650.49 891.17 1650.66 891.59 1649.85 892.42
  C 1631.65 911.01 1613.10 929.85 1594.19 948.94
  C 1592.58 950.56 1591.39 951.88 1590.61 952.91
  C 1590.43 953.15 1590.41 953.48 1590.57 953.74
  Z"
/>
<path fill="#545454" d="
  M 981.49 872.78
  C 986.49 876.68 989.27 881.83 989.84 888.24
  C 991.30 904.59 984.19 914.51 968.50 918.00
  C 963.75 919.06 957.84 919.59 950.75 919.58
  C 932.17 919.56 913.61 919.62 895.08 919.75
  C 894.76 919.75 894.50 919.49 894.50 919.17
  L 894.50 866.54
  C 894.50 866.11 894.85 865.76 895.28 865.76
  C 916.35 865.63 937.00 865.78 957.25 866.21
  C 961.60 866.30 965.91 866.76 970.18 867.61
  C 974.37 868.44 978.14 870.16 981.49 872.78
  Z"
/>
<path fill="#38b6ff" d="
  M 301.05 989.57
  C 300.89 996.00 302.09 1002.16 304.66 1008.07
  C 311.41 1023.62 323.44 1031.17 340.75 1030.73
  C 350.62 1030.48 358.25 1026.29 363.62 1018.17
  C 365.78 1014.90 367.53 1011.23 368.86 1007.16
  C 368.96 1006.84 369.29 1006.64 369.64 1006.69
  L 415.21 1013.86
  C 415.68 1013.93 415.97 1014.41 415.81 1014.85
  C 408.12 1035.91 394.42 1050.40 374.72 1058.32
  C 368.99 1060.63 362.56 1062.29 355.41 1063.32
  C 340.49 1065.47 325.58 1064.82 310.67 1061.38
  C 294.44 1057.63 281.32 1049.65 271.31 1037.44
  C 262.59 1026.79 256.91 1014.15 254.27 999.50
  C 251.40 983.57 251.59 967.67 254.86 951.82
  C 257.50 939.01 262.64 927.54 270.29 917.39
  C 274.48 911.83 279.12 907.07 284.21 903.11
  C 294.43 895.15 306.28 890.28 319.75 888.50
  C 330.44 887.09 340.94 887.17 351.25 888.75
  C 377.16 892.72 395.71 905.70 406.90 927.67
  C 409.65 933.08 411.96 939.31 413.83 946.38
  C 417.37 959.79 418.92 973.69 418.47 988.10
  C 418.46 988.40 418.24 988.65 417.94 988.69
  C 416.07 988.95 414.34 989.08 412.75 989.07
  C 375.68 988.99 338.62 988.99 301.55 989.06
  C 301.28 989.06 301.06 989.29 301.05 989.57
  Z"
/>
<path fill="#38b6ff" d="
  M 1193.52 1042.84
  C 1191.91 1043.91 1190.36 1045.06 1188.87 1046.29
  C 1186.56 1048.20 1185.05 1049.41 1184.35 1049.90
  C 1169.21 1060.58 1151.93 1065.36 1132.50 1064.25
  C 1122.87 1063.70 1114.06 1061.41 1106.09 1057.38
  C 1099.84 1054.23 1094.61 1050.18 1090.39 1045.24
  C 1083.69 1037.40 1080.09 1028.23 1079.59 1017.72
  C 1079.26 1010.61 1080.05 1004.02 1081.96 997.96
  C 1084.40 990.23 1088.85 983.76 1095.31 978.56
  C 1101.11 973.89 1108.17 970.28 1116.49 967.72
  C 1126.64 964.59 1136.94 962.10 1147.40 960.23
  C 1155.11 958.86 1162.78 957.34 1170.43 955.66
  C 1176.76 954.27 1183.08 952.45 1189.41 950.19
  C 1189.72 950.08 1189.94 949.79 1189.96 949.46
  C 1190.17 945.90 1189.99 942.50 1189.41 939.25
  C 1188.73 935.42 1187.44 932.33 1185.54 929.98
  C 1182.67 926.44 1178.66 924.20 1173.50 923.25
  C 1166.38 921.94 1159.88 921.57 1154.01 922.14
  C 1140.96 923.39 1132.12 930.10 1127.49 942.27
  C 1127.31 942.75 1126.82 943.03 1126.31 942.94
  L 1084.96 935.65
  C 1084.69 935.61 1084.52 935.34 1084.59 935.07
  C 1085.84 930.64 1087.36 926.52 1089.17 922.71
  C 1096.34 907.60 1107.79 897.53 1123.50 892.50
  C 1131.28 890.01 1139.69 888.45 1148.74 887.81
  C 1162.25 886.86 1175.94 887.48 1189.81 889.69
  C 1198.54 891.08 1206.66 893.72 1214.16 897.61
  C 1224.05 902.75 1230.42 910.30 1233.25 920.25
  C 1235.30 927.46 1236.32 936.05 1236.30 946.00
  C 1236.27 960.91 1236.18 975.82 1236.05 990.73
  C 1236.04 990.79 1235.97 993.97 1235.83 1000.28
  C 1235.60 1010.53 1236.21 1020.75 1237.67 1030.92
  C 1239.14 1041.15 1242.08 1050.92 1246.49 1060.23
  C 1246.59 1060.44 1246.44 1060.69 1246.21 1060.69
  L 1200.96 1060.75
  C 1200.37 1060.75 1199.86 1060.40 1199.69 1059.88
  L 1194.07 1043.05
  C 1193.99 1042.81 1193.72 1042.71 1193.52 1042.84
  Z"
/>
<path fill="#38b6ff" d="
  M 1326.55 914.49
  C 1326.56 915.40 1326.85 915.50 1327.44 914.81
  C 1343.30 896.22 1363.24 887.11 1387.25 887.50
  C 1394.84 887.62 1402.03 888.71 1408.84 890.77
  C 1415.89 892.90 1421.79 895.90 1426.54 899.77
  C 1433.01 905.05 1437.58 911.79 1440.25 920.00
  C 1442.02 925.44 1443.29 931.30 1444.04 937.57
  C 1444.51 941.46 1444.76 947.42 1444.80 955.45
  C 1444.99 990.43 1445.03 1025.31 1444.94 1060.08
  C 1444.94 1060.45 1444.64 1060.75 1444.27 1060.75
  L 1398.25 1060.75
  C 1397.97 1060.75 1397.75 1060.53 1397.75 1060.25
  C 1397.75 1038.00 1397.81 1015.75 1397.93 993.50
  C 1398.02 977.38 1397.79 963.63 1397.25 952.25
  C 1397.04 947.94 1396.16 943.68 1394.59 939.47
  C 1392.88 934.86 1390.61 931.24 1387.79 928.60
  C 1384.46 925.49 1380.45 923.46 1375.75 922.50
  C 1372.56 921.85 1369.25 921.63 1365.84 921.85
  C 1362.39 922.06 1359.14 922.56 1356.09 923.34
  C 1349.58 925.01 1344.23 928.38 1340.02 933.43
  C 1337.53 936.41 1335.53 939.98 1334.01 944.15
  C 1332.62 947.97 1331.70 952.00 1331.25 956.25
  C 1330.62 962.20 1330.28 966.95 1330.23 970.50
  C 1329.79 999.75 1329.63 1029.53 1329.76 1059.86
  C 1329.76 1060.32 1329.39 1060.69 1328.94 1060.69
  L 1283.19 1060.75
  C 1282.81 1060.75 1282.50 1060.44 1282.50 1060.06
  L 1282.50 891.71
  C 1282.50 891.42 1282.74 891.18 1283.04 891.18
  L 1325.77 891.06
  C 1326.17 891.06 1326.50 891.39 1326.50 891.79
  L 1326.55 914.49
  Z"
/>
<path fill="#38b6ff" d="
  M 512.89 1000.61
  C 513.12 1001.37 513.34 1001.37 513.55 1000.60
  L 543.64 891.75
  C 543.72 891.45 543.99 891.25 544.29 891.25
  L 588.35 891.25
  C 588.85 891.25 589.29 891.59 589.42 892.07
  L 618.71 1001.10
  C 618.87 1001.69 619.04 1001.70 619.22 1001.11
  L 652.60 891.73
  C 652.69 891.44 652.96 891.25 653.26 891.25
  L 698.64 891.25
  C 698.98 891.25 699.22 891.59 699.11 891.91
  L 642.35 1060.21
  C 642.25 1060.50 641.98 1060.69 641.68 1060.69
  L 597.44 1060.57
  C 597.14 1060.57 596.88 1060.37 596.80 1060.09
  L 566.55 952.92
  C 566.34 952.20 566.14 952.20 565.94 952.92
  L 536.25 1060.13
  C 536.15 1060.50 535.81 1060.75 535.43 1060.75
  L 490.96 1060.75
  C 490.54 1060.75 490.16 1060.48 490.02 1060.07
  L 434.22 891.78
  C 434.14 891.55 434.31 891.31 434.55 891.31
  L 479.41 891.06
  C 479.74 891.06 480.04 891.28 480.13 891.60
  L 512.89 1000.61
  Z"
/>
<path fill="#545454" d="
  M 370.79 961.31
  L 302.07 961.19
  C 301.79 961.19 301.56 960.96 301.55 960.68
  C 301.36 950.59 304.13 941.87 309.88 934.52
  C 313.49 929.91 318.00 926.51 323.41 924.32
  C 332.13 920.78 340.96 920.80 349.90 924.37
  C 354.11 926.05 357.75 928.56 360.82 931.90
  C 368.12 939.84 371.66 949.60 371.44 961.17
  C 371.44 961.36 371.32 961.52 371.19 961.49
  C 371.14 961.48 371.09 961.46 371.04 961.42
  C 370.95 961.35 370.86 961.31 370.79 961.31
  Z"
/>
<path fill="#545454" d="
  M 990.06 968.69
  C 994.45 972.43 997.23 977.04 998.40 982.52
  C 999.43 987.37 999.46 992.53 998.48 998.00
  C 996.69 1008.11 990.36 1014.94 979.50 1018.50
  C 977.64 1019.11 975.21 1019.62 972.20 1020.05
  C 970.16 1020.34 967.68 1020.53 964.77 1020.61
  C 941.98 1021.29 918.84 1021.50 895.33 1021.24
  C 894.87 1021.23 894.50 1020.86 894.50 1020.39
  L 894.50 959.60
  C 894.50 959.13 894.88 958.75 895.35 958.75
  C 908.78 958.75 922.00 958.75 935.00 958.74
  C 943.18 958.74 951.35 959.03 959.50 959.60
  C 967.71 960.17 973.02 960.75 975.45 961.32
  C 980.97 962.63 985.84 965.08 990.06 968.69
  Z"
/>
<path fill="#545454" d="
  M 1134.44 1026.06
  C 1129.89 1022.26 1127.39 1017.49 1126.95 1011.75
  C 1126.41 1004.79 1128.84 999.29 1134.25 995.25
  C 1137.00 993.19 1140.15 991.62 1143.69 990.54
  C 1148.08 989.20 1152.51 988.03 1157.00 987.02
  C 1167.83 984.59 1178.64 982.14 1189.45 979.67
  C 1189.71 979.61 1189.95 979.79 1189.96 980.05
  C 1190.42 991.06 1190.02 1000.29 1188.75 1007.75
  C 1187.86 1013.02 1185.01 1017.76 1180.21 1021.96
  C 1171.55 1029.56 1161.40 1033.01 1149.76 1032.30
  C 1144.11 1031.95 1139.01 1029.87 1134.44 1026.06
  Z"
/>
<path fill="#c4c4c4" d="
  M 727.69 1153.31
  C 722.83 1149.38 719.29 1144.34 717.06 1138.19
  C 715.36 1133.49 714.55 1128.44 714.62 1123.04
  C 714.69 1117.59 715.39 1112.60 716.72 1108.07
  C 718.85 1100.83 722.88 1095.02 728.81 1090.63
  C 733.56 1087.12 739.22 1084.85 745.77 1083.84
  C 752.22 1082.85 758.47 1083.24 764.50 1085.00
  C 774.66 1087.97 781.44 1094.57 784.85 1104.80
  C 784.97 1105.17 784.75 1105.56 784.36 1105.65
  L 769.55 1108.99
  C 769.08 1109.10 768.60 1108.83 768.46 1108.37
  C 767.16 1104.20 764.85 1101.12 761.52 1099.11
  C 758.70 1097.40 755.18 1096.55 750.96 1096.55
  C 743.76 1096.55 738.48 1099.53 735.13 1105.48
  C 733.38 1108.60 732.30 1112.59 731.89 1117.44
  C 731.54 1121.61 731.66 1125.80 732.24 1130.00
  C 732.86 1134.49 734.26 1138.26 736.44 1141.31
  C 737.93 1143.40 739.88 1145.03 742.30 1146.18
  C 744.33 1147.15 746.73 1147.72 749.51 1147.90
  C 759.75 1148.57 766.24 1143.51 768.99 1132.72
  C 769.07 1132.43 769.35 1132.26 769.62 1132.34
  L 784.71 1136.89
  C 784.98 1136.97 785.13 1137.26 785.04 1137.53
  C 780.57 1151.22 771.72 1158.93 758.51 1160.66
  C 752.80 1161.41 747.47 1161.29 742.52 1160.32
  C 737.07 1159.25 732.13 1156.91 727.69 1153.31
  Z"
/>
<path fill="#c4c4c4" d="
  M 841.48 1152.01
  C 836.07 1147.36 832.53 1141.55 830.88 1134.57
  C 829.38 1128.26 829.06 1121.99 829.92 1115.78
  C 830.84 1109.07 832.93 1103.30 836.18 1098.49
  C 840.80 1091.65 847.47 1087.13 856.19 1084.94
  C 862.62 1083.31 869.32 1082.96 876.27 1083.87
  C 885.75 1085.11 893.31 1088.98 898.95 1095.49
  C 903.10 1100.27 905.87 1106.24 907.28 1113.39
  C 909.03 1122.28 908.25 1131.04 904.94 1139.69
  C 903.33 1143.88 900.87 1147.58 897.55 1150.80
  C 894.53 1153.74 890.86 1156.10 886.55 1157.87
  C 881.80 1159.83 876.86 1160.91 871.71 1161.11
  C 865.94 1161.34 860.66 1160.84 855.87 1159.61
  C 850.60 1158.25 845.80 1155.72 841.48 1152.01
  Z"
/>
<path fill="#c4c4c4" d="
  M 1015.88 1104.39
  L 1001.07 1158.96
  C 1000.99 1159.24 1000.74 1159.44 1000.45 1159.44
  L 986.11 1159.49
  C 985.54 1159.50 985.04 1159.11 984.89 1158.56
  L 969.57 1102.29
  C 969.48 1101.97 969.43 1101.98 969.43 1102.31
  L 969.06 1158.81
  C 969.06 1159.10 968.84 1159.33 968.56 1159.34
  L 954.77 1159.48
  C 954.21 1159.49 953.75 1159.03 953.75 1158.45
  L 953.75 1085.00
  C 953.75 1084.72 953.97 1084.50 954.25 1084.50
  L 977.96 1084.50
  C 978.30 1084.50 978.61 1084.73 978.70 1085.06
  L 992.92 1134.45
  C 993.01 1134.79 993.11 1134.79 993.21 1134.45
  L 1007.30 1085.06
  C 1007.39 1084.73 1007.70 1084.50 1008.04 1084.50
  L 1031.70 1084.56
  C 1031.97 1084.56 1032.19 1084.79 1032.19 1085.07
  L 1032.25 1158.99
  C 1032.25 1159.27 1032.02 1159.50 1031.74 1159.50
  L 1017.60 1159.50
  C 1017.13 1159.50 1016.75 1159.12 1016.75 1158.65
  L 1016.75 1104.50
  C 1016.75 1102.28 1016.46 1102.24 1015.88 1104.39
  Z"
/>
<path fill="#c4c4c4" d="
  M 1144.05 1102.53
  L 1128.52 1158.94
  C 1128.43 1159.27 1128.13 1159.50 1127.79 1159.50
  L 1113.03 1159.50
  C 1112.75 1159.50 1112.51 1159.31 1112.43 1159.04
  C 1107.33 1140.31 1102.25 1121.57 1097.19 1102.81
  C 1096.90 1101.75 1096.75 1101.73 1096.74 1102.75
  C 1096.58 1121.42 1096.50 1140.15 1096.50 1158.94
  C 1096.50 1159.25 1096.25 1159.50 1095.95 1159.50
  L 1081.80 1159.45
  C 1081.53 1159.44 1081.31 1159.21 1081.31 1158.93
  L 1081.25 1085.18
  C 1081.25 1084.80 1081.55 1084.50 1081.93 1084.50
  L 1105.43 1084.56
  C 1105.73 1084.56 1105.99 1084.76 1106.07 1085.05
  L 1120.24 1134.20
  C 1120.47 1135.02 1120.71 1135.02 1120.94 1134.20
  L 1134.82 1084.99
  C 1134.90 1084.70 1135.17 1084.50 1135.48 1084.50
  L 1158.94 1084.50
  C 1159.39 1084.50 1159.75 1084.86 1159.75 1085.31
  L 1159.75 1158.98
  C 1159.75 1159.27 1159.52 1159.50 1159.23 1159.50
  L 1145.13 1159.50
  C 1144.64 1159.50 1144.25 1159.11 1144.25 1158.62
  L 1144.19 1102.55
  C 1144.19 1102.21 1144.14 1102.20 1144.05 1102.53
  Z"
/>
<rect fill="#c4c4c4" x="1208.50" y="1084.50" width="16.46" height="75.00" rx="0.39"/>
<path fill="#c4c4c4" d="
  M 1308.56 1097.82
  L 1308.50 1158.94
  C 1308.50 1159.25 1308.25 1159.50 1307.94 1159.50
  L 1292.75 1159.50
  C 1292.47 1159.50 1292.25 1159.28 1292.25 1159.00
  L 1292.07 1097.93
  C 1292.07 1097.65 1291.84 1097.43 1291.56 1097.42
  L 1268.82 1097.26
  C 1268.50 1097.25 1268.25 1097.00 1268.25 1096.69
  L 1268.25 1085.02
  C 1268.25 1084.73 1268.48 1084.50 1268.77 1084.50
  L 1331.94 1084.50
  C 1332.25 1084.50 1332.50 1084.75 1332.50 1085.05
  L 1332.45 1096.68
  C 1332.45 1096.96 1332.22 1097.19 1331.94 1097.19
  L 1309.06 1097.31
  C 1308.78 1097.31 1308.56 1097.54 1308.56 1097.82
  Z"
/>
<path fill="#c4c4c4" d="
  M 1394.07 1097.31
  L 1371.30 1097.25
  C 1371.00 1097.25 1370.75 1097.00 1370.75 1096.70
  L 1370.75 1085.02
  C 1370.75 1084.73 1370.98 1084.50 1371.27 1084.50
  L 1434.44 1084.50
  C 1434.75 1084.50 1435.00 1084.75 1435.00 1085.06
  L 1435.00 1096.59
  C 1435.00 1096.95 1434.70 1097.25 1434.34 1097.25
  L 1411.88 1097.25
  C 1411.44 1097.25 1411.07 1097.60 1411.05 1098.04
  C 1410.96 1099.78 1410.95 1101.39 1411.03 1102.86
  C 1411.16 1105.27 1411.22 1106.87 1411.20 1107.66
  C 1410.89 1124.63 1410.89 1141.66 1411.19 1158.73
  C 1411.20 1159.15 1410.85 1159.50 1410.43 1159.50
  L 1395.25 1159.50
  C 1394.97 1159.50 1394.75 1159.28 1394.75 1159.00
  L 1394.75 1098.00
  C 1394.75 1097.62 1394.45 1097.31 1394.07 1097.31
  Z"
/>
<path fill="#c4c4c4" d="
  M 1495.56 1146.69
  L 1539.43 1146.81
  C 1539.73 1146.81 1539.98 1147.03 1539.98 1147.30
  L 1540.10 1158.82
  C 1540.10 1159.10 1539.86 1159.32 1539.56 1159.32
  L 1479.05 1159.50
  C 1478.75 1159.50 1478.50 1159.25 1478.50 1158.94
  L 1478.50 1085.06
  C 1478.50 1084.75 1478.75 1084.50 1479.06 1084.50
  L 1537.94 1084.50
  C 1538.25 1084.50 1538.50 1084.75 1538.50 1085.06
  L 1538.50 1096.59
  C 1538.50 1096.95 1538.20 1097.25 1537.84 1097.25
  L 1495.43 1097.25
  C 1495.05 1097.25 1494.75 1097.55 1494.75 1097.93
  L 1494.75 1113.08
  C 1494.75 1113.45 1495.05 1113.75 1495.42 1113.75
  L 1534.72 1113.75
  C 1535.15 1113.75 1535.50 1114.10 1535.50 1114.53
  L 1535.50 1125.84
  C 1535.50 1126.20 1535.20 1126.50 1534.84 1126.50
  L 1495.75 1126.50
  C 1495.22 1126.50 1494.78 1126.92 1494.79 1127.43
  L 1495.03 1146.19
  C 1495.04 1146.47 1495.27 1146.69 1495.56 1146.69
  Z"
/>
<path fill="#c4c4c4" d="
  M 1604.06 1146.69
  L 1648.18 1146.81
  C 1648.46 1146.81 1648.69 1147.03 1648.70 1147.31
  L 1648.75 1159.00
  C 1648.75 1159.28 1648.53 1159.50 1648.25 1159.50
  L 1587.70 1159.44
  C 1587.31 1159.44 1587.00 1159.12 1587.00 1158.73
  L 1587.00 1085.06
  C 1587.00 1084.75 1587.25 1084.50 1587.56 1084.50
  L 1646.44 1084.50
  C 1646.72 1084.50 1646.95 1084.72 1646.96 1085.00
  L 1647.08 1096.55
  C 1647.09 1096.84 1646.85 1097.07 1646.56 1097.07
  L 1604.07 1097.31
  C 1603.79 1097.32 1603.56 1097.54 1603.55 1097.81
  L 1603.50 1113.25
  C 1603.50 1113.53 1603.72 1113.75 1604.00 1113.75
  L 1643.43 1113.81
  C 1643.71 1113.81 1643.94 1114.03 1643.94 1114.31
  L 1644.07 1125.98
  C 1644.07 1126.27 1643.84 1126.50 1643.55 1126.50
  L 1604.07 1126.56
  C 1603.78 1126.56 1603.55 1126.78 1603.55 1127.05
  L 1603.56 1146.19
  C 1603.56 1146.47 1603.78 1146.69 1604.06 1146.69
  Z"
/>
<path fill="#545454" d="
  M 855.44 1143.80
  C 851.94 1141.07 849.52 1137.57 848.19 1133.31
  C 846.14 1126.78 845.85 1120.16 847.32 1113.46
  C 849.19 1104.86 854.19 1099.48 862.31 1097.31
  C 865.84 1096.37 869.49 1096.23 873.25 1096.90
  C 877.15 1097.59 880.40 1099.01 883.00 1101.15
  C 886.05 1103.65 888.17 1106.96 889.37 1111.08
  C 890.74 1115.79 891.23 1120.52 890.86 1125.26
  C 890.45 1130.45 889.11 1134.89 886.84 1138.60
  C 882.45 1145.79 875.25 1148.85 865.25 1147.77
  C 861.60 1147.38 858.33 1146.05 855.44 1143.80
  Z"
/>
<rect fill="#c4c4c4" x="19.25" y="1105.50" width="669.54" height="12.24" rx="0.56"/>
<rect fill="#c4c4c4" x="19.25" y="1133.75" width="669.54" height="12.24" rx="0.59"/>
</svg>
