<?xml version="1.0" encoding="UTF-8" standalone="no"?>
<svg
   xmlns:dc="http://purl.org/dc/elements/1.1/"
   xmlns:cc="http://creativecommons.org/ns#"
   xmlns:rdf="http://www.w3.org/1999/02/22-rdf-syntax-ns#"
   xmlns:svg="http://www.w3.org/2000/svg"
   xmlns="http://www.w3.org/2000/svg"
   xmlns:sodipodi="http://sodipodi.sourceforge.net/DTD/sodipodi-0.dtd"
   xmlns:inkscape="http://www.inkscape.org/namespaces/inkscape"
   version="1.1"
   id="svg841"
   xml:space="preserve"
   width="1920"
   height="1080"
   viewBox="0 0 1920 1080"
   sodipodi:docname="logo_v_b.svg"
   inkscape:export-filename="C:\Users\admin\OneDrive\desktop\1920x1080.png"
   inkscape:export-xdpi="96"
   inkscape:export-ydpi="96"
   inkscape:version="1.0 (4035a4fb49, 2020-05-01)"><metadata
     id="metadata847"><rdf:RDF><cc:Work
         rdf:about=""><dc:format>image/svg+xml</dc:format><dc:type
           rdf:resource="http://purl.org/dc/dcmitype/StillImage" /><dc:title></dc:title></cc:Work></rdf:RDF></metadata><defs
     id="defs845"><clipPath
       clipPathUnits="userSpaceOnUse"
       id="clipPath857"><path
         d="M 0,222 H 404 V 0 H 0 Z"
         id="path855" /></clipPath><clipPath
       id="clipPath857-6"
       clipPathUnits="userSpaceOnUse"><path
         id="path855-7"
         d="M 0,222 H 404 V 0 H 0 Z" /></clipPath></defs><sodipodi:namedview
     inkscape:document-rotation="0"
     pagecolor="#ffffff"
     bordercolor="#666666"
     borderopacity="1"
     objecttolerance="10"
     gridtolerance="10"
     guidetolerance="10"
     inkscape:pageopacity="0"
     inkscape:pageshadow="2"
     inkscape:window-width="2862"
     inkscape:window-height="1392"
     id="namedview843"
     showgrid="true"
     scale-x="1"
     inkscape:zoom="0.41053452"
     inkscape:cx="-142.05846"
     inkscape:cy="95.738915"
     inkscape:window-x="0"
     inkscape:window-y="0"
     inkscape:window-maximized="0"
     inkscape:current-layer="g849"><inkscape:grid
       type="xygrid"
       id="grid1432" /></sodipodi:namedview><g
     id="g849"
     inkscape:groupmode="layer"
     inkscape:label="logo_v_b"
     transform="matrix(1.3333333,0,0,-1.3333333,0,296)"><g
       transform="matrix(3.0834186,0,0,3.6506204,142.32093,-484.1819)"
       id="g851"><g
         clip-path="url(#clipPath857-6)"
         id="g853"><g
           transform="translate(74.1264,130.2523)"
           id="g859"><path
             id="path861"
             style="fill:#231f20;fill-opacity:1;fill-rule:nonzero;stroke:none"
             d="m 0,0 c 0,6.503 1.489,12.763 4.466,18.781 3.638,7.396 8.972,13.332 16.002,17.806 7.36,4.552 15.258,6.828 23.696,6.828 H 63.766 V 18.781 H 44.164 c -5.294,0 -9.802,-1.829 -13.522,-5.488 C 26.921,9.634 25.059,5.203 25.059,0 c 0,-5.205 1.862,-9.677 5.583,-13.415 3.72,-3.659 8.228,-5.489 13.522,-5.489 H 63.766 V -43.538 H 44.164 c -8.438,0 -16.336,2.275 -23.696,6.829 -7.03,4.47 -12.364,10.407 -16.002,17.805 C 1.489,-12.97 0,-6.668 0,0" /></g><g
           transform="translate(296.182,117.2958)"
           id="g863"><path
             id="path865"
             style="fill:#000000;fill-opacity:1;fill-rule:nonzero;stroke:none"
             d="m 0,0 c -3.578,7.397 -8.823,13.333 -15.734,17.806 -7.232,4.55 -15.037,6.828 -23.413,6.828 H -82.683 V 0 h 43.536 c 5.122,0 9.553,-1.873 13.292,-5.611 3.74,-3.739 5.611,-8.171 5.611,-13.292 0,-5.122 -1.871,-9.556 -5.611,-13.295 -3.739,-3.74 -8.17,-5.61 -13.292,-5.61 h -18.906 v 31.776 h -24.63 v -56.409 h 43.536 c 8.376,0 16.181,2.273 23.413,6.828 6.911,4.47 12.156,10.407 15.734,17.805 2.929,5.935 4.392,12.236 4.392,18.905 C 4.392,-12.32 2.929,-6.021 0,0" /></g><g
           transform="translate(206.1127,86.0731)"
           id="g867"><path
             id="path869"
             style="fill:#231f20;fill-opacity:1;fill-rule:nonzero;stroke:none"
             d="M 0,0 V 24.636 H -43.892 V 31.1 H -0.054 V 55.734 H -68.299 V 31.1 h 0.015 v -6.464 h -0.015 V 0 h 0.015 v -6.585 h -0.015 V -31.219 H -0.054 V -6.585 H -43.892 V 0 Z" /></g></g></g></g></svg>
